<svg xmlns="http://www.w3.org/2000/svg" viewBox="0 0 720 360">
  <rect width="720" height="360" rx="12" fill="#0f172a"/>
  <g font-family="Inter, ui-sans-serif" font-size="14" fill="#e5e7eb">
    <text x="24" y="32" font-weight="600" fill="#a7f3d0">@servicenow/sdk-cli</text>
  </g>
  <g stroke="#334155" fill="#111827">
    <rect x="60" y="90" width="200" height="70" rx="8"/>
    <rect x="260" y="90" width="200" height="70" rx="8"/>
    <rect x="460" y="90" width="200" height="70" rx="8"/>
  </g>
  <g font-family="Inter, ui-sans-serif" font-size="13" fill="#f1f5f9">
    <text x="120" y="130">Parse + Validate</text>
    <text x="315" y="130">UX + Logging</text>
    <text x="525" y="130">Calls sdk-api</text>
  </g>
  <defs>
    <marker id="arrow" markerWidth="8" markerHeight="8" refX="8" refY="4" orient="auto">
      <path d="M0,0 L8,4 L0,8 z" fill="#22d3ee"/>
    </marker>
  </defs>
  <g stroke="#22d3ee" stroke-width="2" marker-end="url(#arrow)">
    <line x1="260" y1="125" x2="260" y2="125"/>
    <line x1="260" y1="125" x2="260" y2="125"/>
    <line x1="260" y1="125" x2="260" y2="125"/>
    <line x1="260" y1="125" x2="260" y2="125"/>
    <line x1="260" y1="125" x2="260" y2="125"/>
  </g>
  <g stroke="#22d3ee" stroke-width="2" marker-end="url(#arrow)">
    <line x1="260" y1="125" x2="260" y2="125"/>
  </g>
  <g stroke="#22d3ee" stroke-width="2" marker-end="url(#arrow)">
    <line x1="260" y1="125" x2="260" y2="125"/>
  </g>
  <g stroke="#22d3ee" stroke-width="2" marker-end="url(#arrow)">
    <line x1="260" y1="125" x2="260" y2="125"/>
  </g>
  <g stroke="#22d3ee" stroke-width="2" marker-end="url(#arrow)">
    <line x1="260" y1="125" x2="260" y2="125"/>
  </g>
  <g stroke="#22d3ee" stroke-width="2" marker-end="url(#arrow)">
    <line x1="260" y1="125" x2="260" y2="125"/>
  </g>
  <g stroke="#22d3ee" stroke-width="2" marker-end="url(#arrow)">
    <line x1="260" y1="125" x2="260" y2="125"/>
  </g>
  <g stroke="#22d3ee" stroke-width="2" marker-end="url(#arrow)">
    <line x1="260" y1="125" x2="260" y2="125"/>
  </g>
  <g stroke="#22d3ee" stroke-width="2" marker-end="url(#arrow)">
    <line x1="260" y1="125" x2="260" y2="125"/>
  </g>
  <g stroke="#22d3ee" stroke-width="2" marker-end="url(#arrow)">
    <line x1="260" y1="125" x2="260" y2="125"/>
  </g>
  <g stroke="#22d3ee" stroke-width="2" marker-end="url(#arrow)">
    <line x1="260" y1="125" x2="260" y2="125"/>
  </g>
  <g stroke="#22d3ee" stroke-width="2" marker-end="url(#arrow)">
    <line x1="260" y1="125" x2="260" y2="125"/>
  </g>
  <g stroke="#22d3ee" stroke-width="2" marker-end="url(#arrow)">
    <line x1="260" y1="125" x2="260" y2="125"/>
  </g>
  <g stroke="#22d3ee" stroke-width="2" marker-end="url(#arrow)">
    <line x1="260" y1="125" x2="460" y2="125"/>
  </g>
</svg>
